<?xml version="1.0" encoding="utf-8"?>
<!-- Generator: Adobe Illustrator 22.0.1, SVG Export Plug-In . SVG Version: 6.00 Build 0)  -->
<svg version="1.1" id="Layer_1" xmlns="http://www.w3.org/2000/svg" xmlns:xlink="http://www.w3.org/1999/xlink" x="0px" y="0px"
	 viewBox="0 0 100 100" style="enable-background:new 0 0 100 100;" xml:space="preserve">
<style type="text/css">
	.st0{fill:#2B687F;}
	.st1{fill:#4D4D4D;}
	.st2{fill:#FFFFFF;stroke:#4D4D4D;stroke-miterlimit:10;}
	.st3{fill:none;stroke:#4D4D4D;stroke-miterlimit:10;}
	.st4{fill:#FFFFFF;}
	.st5{font-family:'Copperplate';}
	.st6{font-size:40px;}
</style>
<title></title>
<path class="st0" d="M20.3,26.5c-1.2-0.2-2.4,0.1-3.5,0.7c-1,0.8-1.6,1.9-1.6,3.2v1.3l5.3,0.2L20.3,26.5z"/>
<rect x="15.3" y="30.4" class="st0" width="11.1" height="37"/>
<path class="st1" d="M74.1,26.5h-5.7v-2.4c0-2.5-2-4.5-4.5-4.5c0,0,0,0,0,0H51.1c-2.5,0-4.5,2-4.5,4.5v2.4H20.3
	c-1.2,0-2.1,0.9-2.1,2.1v40.9l6.8,1l-0.6,3.2h27l24.7-22.3V28.6C76.2,27.4,75.2,26.5,74.1,26.5z"/>
<rect x="20.3" y="6.9" class="st2" width="37.6" height="63.8"/>
<path class="st0" d="M23.6,73.7c-2.2,0-4.4-0.1-5.8-1.1c-1.6-1.2-2.5-3.1-2.5-5.2v-2.1h2.9v1.8c0,0.8,0.4,1.5,1,1.8
	c0.3,0.1,0.6,0.2,1,0.2c0.9,0,1.7-0.7,1.9-1.6l-0.7,3.4c-0.3,1.2,0.5,2.5,1.8,2.7C23.3,73.7,23.5,73.7,23.6,73.7z"/>
<rect x="22.6" y="4" class="st2" width="37.6" height="63.8"/>
<rect x="25.5" y="1.1" class="st2" width="37.6" height="63.8"/>
<path class="st0" d="M88.7,38.5l-7,33.3c-0.2,1.1-1.2,1.8-2.3,1.8H23.7c-1.3,0-2.3-1-2.3-2.3c0-0.2,0-0.3,0.1-0.5l0.7-3.4l6.3-29.9
	c0.2-1.1,1.2-1.8,2.3-1.8h55.8c1.3,0,2.3,1,2.3,2.3C88.7,38.2,88.7,38.4,88.7,38.5z"/>
<rect x="29.4" y="6.1" class="st2" width="11" height="12.8"/>
<line class="st3" x1="46.1" y1="9.2" x2="58.9" y2="9.2"/>
<line class="st3" x1="29.3" y1="25.1" x2="58.9" y2="25.1"/>
<line class="st3" x1="46.1" y1="16.3" x2="58.9" y2="16.3"/>
<line class="st3" x1="29.3" y1="32.1" x2="58.9" y2="32.1"/>
<text transform="matrix(1 0 0 1 28.3772 65.8725)" class="st4 st5 st6">CV</text>
</svg>
